/* XPM */
static char * download_cancel_xpm[] = {
"32 16 5 1",
" 	c None",
".	c #7F7F7F",
"+	c #FFFFFF",
"@	c #FF0000",
"#	c #CCCCCC",
"................................",
".++++++++++++++++++++++++++++++.",
".++++++++++++++++++++++++++++++.",
".++++++++++@@++++++@@++++++++++.",
".++++++++++@@@++++@@@++++++++++.",
".+++++++++++@@@++@@@+++++++++++.",
".++++++++++++@@@@@@++++++++++++.",
".+++++++++++++@@@@++++++++++++#.",
".#++++++++++++@@@@++++++++++++#.",
".#+++++++++++@@@@@@+++++++++++#.",
".#++++++++++@@@++@@@++++++++++#.",
".#+++++++++@@@++++@@@+++++++++#.",
".#+++++++++@@++++++@@+++++++++#.",
".#++++++++++++++++++++++++++++#.",
".##############################.",
"................................"};
