/* XPM */
static char * downloading_xpm[] = {
"32 16 7 1",
" 	c None",
".	c #909090",
"+	c #FFFFFF",
"@	c #FF0000",
"#	c #FFE400",
"$	c #CCCCCC",
"%	c #00FC0B",
"................................",
".++++++++++++++++++++++++++++++.",
".++++++++++++@@###@@+++++++++++.",
".++++++++++++@@###@@+++++++++++.",
".++++++++++++@@###@@+++++++++++.",
".++++++++++++@@###@@+++++++++++.",
".++++++++++++@@###@@+++++++++++.",
".++++++++++++@@###@@+++++++++++.",
".$%%%%%%#####@@###@@#####%%%%%$.",
".$%%%%%%%@@@@@@@#@@@@@@@%%%%%%$.",
".$%%%%%%%%@@@@@@#@@@@@@%%%%%%%$.",
".$%%%%%%%%%%%%%@@@%%%%%%%%%%%%$.",
".$%%%%%%%%%%%%%%@%%%%%%%%%%%%%$.",
".$%%%%%%%%%%%%%%@%%%%%%%%%%%%%$.",
".$$$$$$$$$$$$$$$$$$$$$$$$$$$$$$.",
"................................"};
