/* XPM */
static char * download_xpm[] = {
"32 16 6 1",
" 	c None",
".	c #909090",
"+	c #FFFFFF",
"@	c #478F31",
"#	c #8FCC79",
"$	c #CCCCCC",
"................................",
".++++++++++++++++++++++++++++++.",
".++++++++++++@@###@@+++++++++++.",
".++++++++++++@@###@@+++++++++++.",
".++++++++++++@@###@@+++++++++++.",
".++++++++++++@@###@@+++++++++++.",
".++++++++++++@@###@@+++++++++++.",
".++++++++++++@@###@@+++++++++++.",
".$++++++#####@@###@@#####+++++$.",
".$+++++++@@@@@@@#@@@@@@@++++++$.",
".$++++++++@@@@@@#@@@@@@+++++++$.",
".$+++++++++++++@@@++++++++++++$.",
".$++++++++++++++@+++++++++++++$.",
".$++++++++++++++@+++++++++++++$.",
".$$$$$$$$$$$$$$$$$$$$$$$$$$$$$$.",
"................................"};
