/* XPM */
static char * fixmap_src_xpm[] = {
"32 32 3 1",
" 	c None",
".	c #FFFF00",
"+	c #FF0000",
"                                ",
"                .               ",
"               .+.              ",
"               .+.              ",
"              .+.+.             ",
"             .+.+.+.            ",
"            .+..+..+.           ",
"           .....+.....          ",
"               .+.              ",
"               .+.              ",
"       .       ...      .       ",
"      ..        +       ..      ",
"     .+.        +       .+.     ",
"    .+..        +       ..+.    ",
"  ..+.......   +++  .......+..  ",
" .++.++++++.++++++++.++++++.++. ",
"  ..+.......   +++  .......+..  ",
"    .+..        +       ..+.    ",
"     .+.        +       .+.     ",
"      ..        +       ..      ",
"       .       ...      .       ",
"               .+.              ",
"               .+.              ",
"               .+.              ",
"           .....+.....          ",
"            .+..+..+.           ",
"             .+.+.+.            ",
"              .+.+.             ",
"               .+.              ",
"               .+.              ",
"                .               ",
"                                "};
