/* XPM */
static char * letter_minus_xpm[] = {
"18 36 3 1",
" 	c None",
".	c #FFFFFF",
"+	c #4E00FF",
"                  ",
"                  ",
"                  ",
"                  ",
"                  ",
"                  ",
"                  ",
"                  ",
"                  ",
"                  ",
"                  ",
"                  ",
"                  ",
"                  ",
"                  ",
"                  ",
"   ............   ",
"   .++++++++++.   ",
"   .++++++++++.   ",
"   ............   ",
"                  ",
"                  ",
"                  ",
"                  ",
"                  ",
"                  ",
"                  ",
"                  ",
"                  ",
"                  ",
"                  ",
"                  ",
"                  ",
"                  ",
"                  ",
"                  "};
