/* XPM */
static char * letter_dot_xpm[] = {
"18 36 3 1",
" 	c None",
".	c #FFFFFF",
"+	c #FF0000",
"                  ",
"                  ",
"                  ",
"                  ",
"                  ",
"                  ",
"                  ",
"                  ",
"                  ",
"                  ",
"                  ",
"                  ",
"                  ",
"                  ",
"                  ",
"                  ",
"                  ",
"                  ",
"                  ",
"                  ",
"                  ",
"                  ",
"                  ",
"                  ",
"                  ",
"                  ",
"                  ",
"                  ",
"                  ",
"      ......      ",
"      .++++.      ",
"      .++++.      ",
"      .++++.      ",
"      .++++.      ",
"      ......      ",
"                  "};
