/* XPM */
static char * poll_engine_fso_xpm[] = {
"40 15 4 1",
" 	c None",
".	c #7F7F7F",
"+	c #E5E5E5",
"@	c #002800",
"........................................",
".++++++++++++++++++++++++++++++++++++++.",
".+++++@@@@@@@++++@@@@+++++++@@@@+++++++.",
".+++++@@++++++++@@++@@+++++@@++@@++++++.",
".+++++@@+++++++@@+++++++++@@++++@@+++++.",
".+++++@@+++++++@@++++++++@@++++++@@++++.",
".+++++@@++++++++@@+++++++@@++++++@@++++.",
".+++++@@@@@@@++++@@@@++++@@++++++@@++++.",
".+++++@@++++++++++++@@+++@@++++++@@++++.",
".+++++@@+++++++++++++@@++@@++++++@@++++.",
".+++++@@+++++++++++++@@+++@@++++@@+++++.",
".+++++@@+++++++@@+++@@+++++@@++@@++++++.",
".+++++@@++++++++@@@@@+++++++@@@@+++++++.",
".++++++++++++++++++++++++++++++++++++++.",
"........................................"};
