/* XPM */
static char * position_invalid_xpm[] = {
"32 32 3 1",
" 	c None",
".	c #FF0000",
"+	c #E5E5E5",
"               ..+     ..+      ",
"               ..+   . ...+     ",
"               ..+  ...  ..+    ",
"                    ..    .+    ",
"               ..+       ..+    ",
"               ..+     ...+     ",
"               ..+    ..++      ",
"                      .+        ",
"               ..+    .+        ",
"               ..+              ",
"               ..+    ..+       ",
"                      ..+       ",
"               ..+              ",
"               ..+              ",
".... ... ... ...... ... ... ....",
".... ... ... ...... ... ... ....",
"++++ +++ +++ ++..++ +++ +++ ++++",
"               ..+              ",
"               ..+              ",
"                                ",
"               ..+              ",
"               ..+              ",
"               ..+              ",
"                                ",
"               ..+              ",
"               ..+              ",
"               ..+              ",
"                                ",
"               ..+              ",
"               ..+              ",
"               ..+              ",
"               ..+              "};
