/* XPM */
static char * position_heading_xpm[] = {
"40 40 13 1",
" 	c None",
".	c #FF0000",
"+	c #C3C3C3",
"@	c #FFFFFF",
"#	c #E5E5E5",
"$	c #FBFBFB",
"%	c #F1F1F1",
"&	c #E8E8E8",
"*	c #F3F3F3",
"=	c #E4E4E4",
"-	c #C8C8C8",
";	c #B4B4B4",
">	c #B2B2B2",
"                    .                   ",
"                ++++.+++                ",
"              +++@@@.@@++++             ",
"           +++@@@@@@#@@@@@+++           ",
"         +++@@@@@@@@#@@@@@@@@++         ",
"     .  ++@@@@@@@@@@#@@@@@@@@@@++       ",
"      .++@@@@@@@@@@@#@@@@@@@@@@@+ .     ",
"      +.@@@@@@@@@@@@#@@@@@@@@@@@@.+     ",
"     +@@.@@@@@@@@@@@#@@@@@@@@@@@.@+     ",
"    ++@@@#@@@@@@@@@@#@@@@@@@@@@#@@++    ",
"    +@@@@@#@@@@@@@@@#@@@@@@@@@#@@@@+    ",
"   ++@@@@@@#@@@@@@@@#@@@@@@@@#@@@@@@+   ",
"   +@@@@@@@@#@@@@@@@#@@@@@@@#@@@@@@@+   ",
"  ++@@@@@@@@@#@@@@@@#@@@@@@#@@@@@@@@@+  ",
"  +@@@@@@@@@@@#@@$%&#&@$@@#@@@@@@@@@@+  ",
"  +@@@@@@@@@@@@#*#######*#@@@@@@@@@@@+  ",
" ++@@@@@@@@@@@@@#########@@@@@@@@@@@@++ ",
" +@@@@@@@@@@@@$###########@@@@@@@@@@@++ ",
" +@@@@@@@@@@@@%###=-;-=###%@@@@@@@@@@@+ ",
" +@@@@@@@@@@@@&###->>>-###&@@@@@@@@@@@+ ",
"....##############;>>>;#############....",
" +@@@@@@@@@@@@&###->>>-###&@@@@@@@@@@@+ ",
" +@@@@@@@@@@@@%###=-;-=###%@@@@@@@@@@@+ ",
" ++@@@@@@@@@@@$###########$@@@@@@@@@@++ ",
" ++@@@@@@@@@@@@*#########@@@@@@@@@@@@++ ",
"  +@@@@@@@@@@@@#@#######@#@@@@@@@@@@@+  ",
"  ++@@@@@@@@@@#@@@%&#&%$@@#@@@@@@@@@ +  ",
"   +@@@@@@@@@#@@@@@@#@@@@@@#@@@@@@@@++  ",
"   ++@@@@@@@#@@@@@@@#@@@@@@@#@@@@@@@+   ",
"    +@@@@@@#@@@@@@@@#@@@@@@@@#@@@@@+    ",
"    ++@@@@#@@@@@@@@@#@@@@@@@@@#@@@++    ",
"     ++@@.@@@@@@@@@@#@@@@@@@@@@.#++     ",
"      ++.@@@@@@@@@@@#@@@@@@@@@@#.+      ",
"       .+@@@@@@@@@@@#@@@@@@@@@@++.      ",
"      . ++@@@@@@@@@@#@@@@@@@@@++  .     ",
"         +++@@@@@@@@#@@@@@@@+++         ",
"           +++@@@@@@.@@@@@+++           ",
"             ++++@@@.@@++++             ",
"                ++++.+++                ",
"                    .                   "};
