/* XPM */
static char * position_valid_xpm[] = {
"32 32 3 1",
" 	c None",
".	c #FF0000",
"+	c #E5E5E5",
"               ..+              ",
"               ..+              ",
"               ..+              ",
"               ..+              ",
"               ..+              ",
"               ..+              ",
"               ..+              ",
"               ..+              ",
"               ..+              ",
"               ..+              ",
"               ..+              ",
"               ..+              ",
"               ..+              ",
"               ..+              ",
"................................",
"................................",
"+++++++++++++++..+++++++++++++++",
"               ..+              ",
"               ..+              ",
"               ..+              ",
"               ..+              ",
"               ..+              ",
"               ..+              ",
"               ..+              ",
"               ..+              ",
"               ..+              ",
"               ..+              ",
"               ..+              ",
"               ..+              ",
"               ..+              ",
"               ..+              ",
"               ..+              "};
