/* XPM */
static char * track_on_xpm[] = {
"40 25 5 1",
" 	c None",
".	c #CCCCCC",
"+	c #E5E5E5",
"@	c #FF0000",
"#	c #0000FF",
"........................................",
".++++++++++++++++++++++++++++++++++++++.",
".++++++++++++++++++++++++++++++++++++++.",
".++++++++++++++++++++++++@@++++++++++++.",
".+++++++++++++++++++++++@@+++++++++++++.",
".++++++++++++++++++++++@@++++++++++++++.",
".+++++++++++++++++++++@@+++++++++++++++.",
".+++++++++++++@@+++++@@++++++++++++++++.",
".+++++++++++++@@@+++@@+++++++++++++++++.",
".++++++++++++++@@@+@@++++++++++++++++++.",
".+########++++++@@@@+++++++++++++++++++.",
".+########+++++++@@++++++++++++##++++++.",
".++++##++++++++++++++++++++++++##+++##+.",
".++++##+++##++#+######++++####+##++##++.",
".++++##+++##+##+++#####++#####+##+##+++.",
".++++##+++####++###++##+###++++####++++.",
".++++##+++###+++##+++##+##+++++####++++.",
".++++##+++##++++##+++##+##+++++##+##+++.",
".++++##+++##++++##++###+###++++##++##++.",
".++++##+++##++++#######++#####+##+++##+.",
".++++##+++##+++++###++##++####+##++++##.",
".++++++++++++++++++++++++++++++++++++++.",
".++++++++++++++++++++++++++++++++++++++.",
".++++++++++++++++++++++++++++++++++++++.",
"........................................"};
