/* XPM */
static char * track_replay_flag_xpm[] = {
"8 8 3 1",
" 	c None",
".	c #FFFFFF",
"+	c #FF0000",
"  .++.  ",
"  .++.  ",
"...++...",
"++++++++",
"++++++++",
"...++...",
"  .++.  ",
"  .++.  "};
