/* XPM */
static char * unit_m_xpm[] = {
"13 13 3 1",
" 	c None",
".	c #FFFFFF",
"+	c #4E00FF",
"             ",
" ........... ",
" ..+++++++.. ",
" .+++++++++. ",
" .++..+..++. ",
" .++..+..++. ",
" .++..+..++. ",
" .++..+..++. ",
" .++..+..++. ",
" .++..+..++. ",
" .++..+..++. ",
" ........... ",
"             "};
