/* XPM */
static char * unit_mph_xpm[] = {
"33 18 3 1",
" 	c None",
".	c #FFFFFF",
"+	c #4E00FF",
"                                 ",
"                      ....       ",
"                      .++.       ",
"                      .++.       ",
"  ......... ......... .++.       ",
" ..+++++++...+++++++...++......  ",
" .+++++++++..++++++++..+++++++.. ",
" .++..+..++..++....++..++++++++. ",
" .++..+..++..++....++..++....++. ",
" .++..+..++..++....++..++.  .++. ",
" .++..+..++..++...+++..++.  .++. ",
" .++..+..++..+++++++...++.  .++. ",
" .++..+..++..++++++.. .++.  .++. ",
" .++..+..++..++.....  .++.  .++. ",
" ............++.      ....  .... ",
"            .++.                 ",
"            ....                 ",
"                                 "};
