/* XPM */
static char * unit_mps_xpm[] = {
"29 14 3 1",
" 	c None",
".	c #FFFFFF",
"+	c #4E00FF",
"                             ",
"                ...          ",
"  .........     .+.........  ",
" ..+++++++..   ..+..++++++.. ",
" .+++++++++.   .+..++++++++. ",
" .++..+..++.  ..+..++....... ",
" .++..+..++.  .+...++......  ",
" .++..+..++. ..+. ..++++++.. ",
" .++..+..++. .+..  ......++. ",
" .++..+..++...+.  .......++. ",
" .++..+..++..+..  .++++++++. ",
" .++..+..++..+.   .+++++++.. ",
" ..............   .........  ",
"                             "};
